<mxfile host="app.diagrams.net" modified="2024-01-21T17:10:02.959Z" agent="Mozilla/5.0 (Macintosh; Intel Mac OS X 10_15_7) AppleWebKit/537.36 (KHTML, like Gecko) Chrome/120.0.0.0 Safari/537.36" etag="wSSGgrTT9vlvHHAg1tIf" version="22.1.21" type="device">
  <diagram name="Página-1" id="0Nk05AMfQCpYy5MM-5Q2">
    <mxGraphModel dx="2501" dy="761" grid="1" gridSize="10" guides="1" tooltips="1" connect="1" arrows="1" fold="1" page="1" pageScale="1" pageWidth="827" pageHeight="1169" math="0" shadow="0">
      <root>
        <mxCell id="0" />
        <mxCell id="1" parent="0" />
        <mxCell id="LkPJ0RpSSs3FggO_Kl2O-1" value="" style="rounded=0;whiteSpace=wrap;html=1;fontSize=16;" parent="1" vertex="1">
          <mxGeometry x="-40" y="45" width="1000" height="710" as="geometry" />
        </mxCell>
        <mxCell id="1yYVbWKhkn8_KcJPBw5V-1" value="Vendedor" style="shape=umlActor;verticalLabelPosition=bottom;verticalAlign=top;html=1;outlineConnect=0;" parent="1" vertex="1">
          <mxGeometry x="110" y="360" width="30" height="60" as="geometry" />
        </mxCell>
        <mxCell id="1yYVbWKhkn8_KcJPBw5V-5" value="preencher dados" style="ellipse;whiteSpace=wrap;html=1;" parent="1" vertex="1">
          <mxGeometry x="400" y="140" width="120" height="80" as="geometry" />
        </mxCell>
        <mxCell id="1yYVbWKhkn8_KcJPBw5V-6" value="publicar anuncio" style="ellipse;whiteSpace=wrap;html=1;" parent="1" vertex="1">
          <mxGeometry x="260" y="360" width="120" height="80" as="geometry" />
        </mxCell>
        <mxCell id="1yYVbWKhkn8_KcJPBw5V-7" value="pre-visualisar" style="ellipse;whiteSpace=wrap;html=1;" parent="1" vertex="1">
          <mxGeometry x="650" y="280" width="120" height="80" as="geometry" />
        </mxCell>
        <mxCell id="1yYVbWKhkn8_KcJPBw5V-8" value="editar" style="ellipse;whiteSpace=wrap;html=1;" parent="1" vertex="1">
          <mxGeometry x="800" y="430" width="120" height="80" as="geometry" />
        </mxCell>
        <mxCell id="1yYVbWKhkn8_KcJPBw5V-9" value="&amp;lt;includes&amp;gt;" style="endArrow=open;endSize=12;dashed=1;html=1;rounded=0;entryX=0;entryY=1;entryDx=0;entryDy=0;exitX=0.5;exitY=0;exitDx=0;exitDy=0;" parent="1" source="1yYVbWKhkn8_KcJPBw5V-6" target="1yYVbWKhkn8_KcJPBw5V-5" edge="1">
          <mxGeometry width="160" relative="1" as="geometry">
            <mxPoint x="550" y="380" as="sourcePoint" />
            <mxPoint x="390" y="380" as="targetPoint" />
          </mxGeometry>
        </mxCell>
        <mxCell id="1yYVbWKhkn8_KcJPBw5V-10" value="&amp;lt;extend&amp;gt;" style="endArrow=open;endSize=12;dashed=1;html=1;rounded=0;exitX=0.992;exitY=0.75;exitDx=0;exitDy=0;exitPerimeter=0;" parent="1" source="1yYVbWKhkn8_KcJPBw5V-5" target="1yYVbWKhkn8_KcJPBw5V-7" edge="1">
          <mxGeometry width="160" relative="1" as="geometry">
            <mxPoint x="393" y="357" as="sourcePoint" />
            <mxPoint x="513" y="414" as="targetPoint" />
          </mxGeometry>
        </mxCell>
        <mxCell id="1yYVbWKhkn8_KcJPBw5V-11" value="&amp;lt;extend&amp;gt;" style="endArrow=open;endSize=12;dashed=1;html=1;rounded=0;entryX=0;entryY=0;entryDx=0;entryDy=0;exitX=0.717;exitY=0.938;exitDx=0;exitDy=0;exitPerimeter=0;" parent="1" source="1yYVbWKhkn8_KcJPBw5V-7" target="1yYVbWKhkn8_KcJPBw5V-8" edge="1">
          <mxGeometry width="160" relative="1" as="geometry">
            <mxPoint x="398" y="284" as="sourcePoint" />
            <mxPoint x="523" y="226" as="targetPoint" />
          </mxGeometry>
        </mxCell>
        <mxCell id="1yYVbWKhkn8_KcJPBw5V-12" value="&amp;lt;extend&amp;gt;" style="endArrow=open;endSize=12;dashed=1;html=1;rounded=0;exitX=0.025;exitY=0.688;exitDx=0;exitDy=0;exitPerimeter=0;" parent="1" source="1yYVbWKhkn8_KcJPBw5V-7" target="1yYVbWKhkn8_KcJPBw5V-6" edge="1">
          <mxGeometry width="160" relative="1" as="geometry">
            <mxPoint x="589" y="152" as="sourcePoint" />
            <mxPoint x="659" y="109" as="targetPoint" />
          </mxGeometry>
        </mxCell>
        <mxCell id="1yYVbWKhkn8_KcJPBw5V-17" value="publicar com destaque" style="ellipse;whiteSpace=wrap;html=1;" parent="1" vertex="1">
          <mxGeometry x="420" y="470" width="140" height="70" as="geometry" />
        </mxCell>
        <mxCell id="1yYVbWKhkn8_KcJPBw5V-18" value="" style="html=1;verticalAlign=bottom;endArrow=block;curved=0;rounded=0;entryX=1;entryY=1;entryDx=0;entryDy=0;endFill=0;" parent="1" source="1yYVbWKhkn8_KcJPBw5V-17" target="1yYVbWKhkn8_KcJPBw5V-6" edge="1">
          <mxGeometry width="80" relative="1" as="geometry">
            <mxPoint x="560" y="380" as="sourcePoint" />
            <mxPoint x="640" y="380" as="targetPoint" />
          </mxGeometry>
        </mxCell>
        <mxCell id="1yYVbWKhkn8_KcJPBw5V-19" value="" style="endArrow=none;html=1;rounded=0;entryX=0;entryY=0.5;entryDx=0;entryDy=0;" parent="1" source="1yYVbWKhkn8_KcJPBw5V-1" target="1yYVbWKhkn8_KcJPBw5V-6" edge="1">
          <mxGeometry width="50" height="50" relative="1" as="geometry">
            <mxPoint x="160" y="400" as="sourcePoint" />
            <mxPoint x="300" y="350" as="targetPoint" />
          </mxGeometry>
        </mxCell>
        <mxCell id="LkPJ0RpSSs3FggO_Kl2O-2" value="Publicar Anúncio" style="text;strokeColor=none;fillColor=none;html=1;align=center;verticalAlign=middle;whiteSpace=wrap;rounded=0;fontSize=16;" parent="1" vertex="1">
          <mxGeometry x="10" y="60" width="60" height="30" as="geometry" />
        </mxCell>
        <mxCell id="QOuGEIKfS4vpazYAMRuR-2" value="pagamento" style="ellipse;whiteSpace=wrap;html=1;" vertex="1" parent="1">
          <mxGeometry x="560" y="600" width="120" height="80" as="geometry" />
        </mxCell>
        <mxCell id="QOuGEIKfS4vpazYAMRuR-3" value="&amp;lt;includes&amp;gt;" style="endArrow=open;endSize=12;dashed=1;html=1;rounded=0;entryX=0.288;entryY=0;entryDx=0;entryDy=0;exitX=1;exitY=1;exitDx=0;exitDy=0;entryPerimeter=0;" edge="1" parent="1" source="1yYVbWKhkn8_KcJPBw5V-17" target="QOuGEIKfS4vpazYAMRuR-2">
          <mxGeometry width="160" relative="1" as="geometry">
            <mxPoint x="428" y="218" as="sourcePoint" />
            <mxPoint x="330" y="370" as="targetPoint" />
          </mxGeometry>
        </mxCell>
      </root>
    </mxGraphModel>
  </diagram>
</mxfile>
